<svg id="Camada_1" data-name="Camada 1" xmlns="http://www.w3.org/2000/svg" viewBox="0 0 919.91 577.23"><defs><style>.cls-1{fill:#2ecc71;}.cls-2,.cls-3{fill:#333;}.cls-3{font-size:133.81px;font-family:Inversionz;}</style></defs><path class="cls-1" d="M1226.83,345.81c-2.13-8-30.3-8.41-74.8-2.51-21.27-86-98.94-149.8-191.52-149.8-101.24,0-184.64,76.24-196,174.43-1.68,18.42,9.59,41.82,25.26,51.64,32.88,20.62,90.84,14.75,151.13,4.21-45.29,11.68-86.44,21.31-118.68,28h0C693.39,482.55,763.91,437.2,777,431l-.09-.14c-61.81,22.47-86.31,46.41-83.65,56.44,4.55,17.15,127.69-.61,275-39.69S1231.38,363,1226.83,345.81ZM909.07,317l3.63-12.66L916.33,317l8.44,3.18-8.44,3.17L912.7,336l-3.63-12.67-8.45-3.17Zm-41.73-46.82,7.27-25.38,7.27,25.38,16.92,6.36-16.92,6.36-7.27,25.38-7.27-25.38-16.92-6.36Zm287.86,88.55q-.84-5.1-1.93-10.12c10.71-1.22,16.85-1.07,17.31.67S1165.55,354.34,1155.2,358.74Z" transform="translate(-500.04 -193.5)"/><path class="cls-1" d="M996.49,449.6h0q-10.83,3-21.92,5.93c-20.82,5.52-41.16,10.61-60.75,15.25l-5.28,1.35s-112.4,30.52-45.66,85.75a121.31,121.31,0,0,0,45.39,23.22A197.72,197.72,0,0,0,1071,554.3h-31.12a8.38,8.38,0,0,1-8.32-9.18,8.55,8.55,0,0,1,8.58-7.53h52.21a198.85,198.85,0,0,0,16.53-16.7H991.24a8.52,8.52,0,0,1-8.57-7.52,8.37,8.37,0,0,1,8.31-9.19h131q2.87-4.08,5.54-8.32a5.46,5.46,0,0,0-4.62-8.38h-85.2a8.53,8.53,0,0,1-8.57-7.53,8.37,8.37,0,0,1,8.31-9.18h103.47q3.63-8.17,6.53-16.71h-69.09a8.37,8.37,0,0,1-8.35-8.35h0a8.37,8.37,0,0,1,8.35-8.35h73.91a197,197,0,0,0,5.42-39.74c-41.79,16.28-98,34.59-161.19,52Z" transform="translate(-500.04 -193.5)"/><rect class="cls-2" x="699.02" y="523.69" width="15.07" height="15.07"/><rect class="cls-2" x="16.71" y="495.97" width="41.83" height="6.85"/><text class="cls-3" transform="translate(0 568.86)">PLANET HOST</text></svg>