<svg id="Camada_1" data-name="Camada 1" xmlns="http://www.w3.org/2000/svg" viewBox="0 0 1225.5 191.62"><defs><style>.cls-1{fill:#2ecc71;}.cls-2,.cls-3{fill:#333;}.cls-3{font-size:133.81px;font-family:Inversionz;}</style></defs><path class="cls-1" d="M618,458.4c-1-3.91-14.72-4.09-36.33-1.22a95.82,95.82,0,0,0-188.17,12c-.81,8.94,4.66,20.31,12.27,25.08,16,10,44.11,7.16,73.39,2-22,5.67-42,10.35-57.63,13.57h0c-62.57,15-28.33-7.06-22-10.06l0-.07c-30,10.91-41.91,22.54-40.62,27.41,2.21,8.33,62-.3,133.56-19.27S620.22,466.73,618,458.4Zm-154.31-14,1.76-6.15,1.77,6.15,4.1,1.54-4.1,1.55-1.77,6.15-1.76-6.15L459.6,446Zm-20.26-22.74L447,409.35l3.53,12.32,8.22,3.09-8.22,3.09L447,440.18l-3.53-12.33-8.22-3.09Zm139.78,43c-.27-1.65-.58-3.28-.93-4.91,5.2-.59,8.18-.52,8.4.33S588.25,462.54,583.22,464.67Z" transform="translate(-358.8 -384.43)"/><path class="cls-1" d="M506.16,508.8h0q-5.26,1.45-10.65,2.88c-10.11,2.68-20,5.15-29.5,7.4l-2.56.66s-54.59,14.82-22.18,41.64a59,59,0,0,0,22.05,11.28,96,96,0,0,0,79-13H527.2a4.06,4.06,0,0,1-4-4.46,4.14,4.14,0,0,1,4.16-3.65h25.36a96.15,96.15,0,0,0,8-8.12h-57.1a4.15,4.15,0,0,1-4.17-3.65,4.08,4.08,0,0,1,4-4.46h63.61q1.39-2,2.69-4a2.65,2.65,0,0,0-2.24-4.07H526.17a4.15,4.15,0,0,1-4.17-3.65,4.08,4.08,0,0,1,4-4.46h50.24c1.18-2.65,2.24-5.35,3.17-8.12H545.9a4.06,4.06,0,0,1-4-4h0a4.07,4.07,0,0,1,4-4.06h35.9a96.51,96.51,0,0,0,2.63-19.29c-20.29,7.9-47.6,16.79-78.27,25.24Z" transform="translate(-358.8 -384.43)"/><rect class="cls-2" x="1004.61" y="103.09" width="15.07" height="15.07"/><rect class="cls-2" x="322.3" y="75.37" width="41.83" height="6.85"/><text class="cls-3" transform="translate(305.59 148.26)">PLANET HOST</text></svg>