<svg id="Camada_1" data-name="Camada 1" xmlns="http://www.w3.org/2000/svg" viewBox="0 0 533.92 394.61"><defs><style>.cls-1{fill:#2ecc71;}</style></defs><path class="cls-1" d="M1315.35,432.27c-2.13-8-30.3-8.41-74.81-2.51-21.26-86-98.93-149.8-191.52-149.8-101.23,0-184.64,76.24-196,174.43-1.67,18.42,9.59,41.82,25.26,51.64,32.89,20.62,90.84,14.75,151.13,4.21-45.28,11.67-86.44,21.31-118.67,27.94h0C781.9,569,852.43,523.65,865.48,517.47l-.08-.15c-61.82,22.47-86.31,46.42-83.65,56.44,4.55,17.16,127.69-.61,275-39.68S1319.9,449.43,1315.35,432.27Zm-317.77-28.8,3.63-12.66,3.63,12.66,8.45,3.18-8.45,3.17-3.63,12.66-3.63-12.66-8.44-3.17Zm-41.73-46.83,7.28-25.37,7.27,25.37L987.32,363l-16.92,6.36-7.27,25.37-7.28-25.37L938.94,363Zm287.87,88.55q-.84-5.1-1.93-10.11c10.71-1.22,16.85-1.07,17.31.67S1254.06,440.8,1243.72,445.19Z" transform="translate(-781.56 -279.96)"/><path class="cls-1" d="M1085,536.06h0q-10.83,3-21.92,5.92c-20.83,5.53-41.16,10.62-60.75,15.25L997,558.59s-112.41,30.53-45.67,85.76a121.28,121.28,0,0,0,45.4,23.22,197.72,197.72,0,0,0,162.72-26.81h-31.13a8.37,8.37,0,0,1-8.31-9.19,8.52,8.52,0,0,1,8.57-7.52h52.22a197.48,197.48,0,0,0,16.53-16.71H1079.76a8.52,8.52,0,0,1-8.57-7.52,8.37,8.37,0,0,1,8.31-9.18h131q2.88-4.1,5.55-8.33a5.47,5.47,0,0,0-4.62-8.38h-85.2a8.52,8.52,0,0,1-8.57-7.52,8.37,8.37,0,0,1,8.31-9.18h103.47c2.41-5.45,4.6-11,6.52-16.71h-69.08a8.38,8.38,0,0,1-8.36-8.35h0a8.38,8.38,0,0,1,8.36-8.36h73.91a196.86,196.86,0,0,0,5.42-39.73c-41.79,16.27-98,34.58-161.19,52Z" transform="translate(-781.56 -279.96)"/></svg>